<?xml version="1.0" standalone="no"?>
<!DOCTYPE svg PUBLIC "-//W3C//DTD SVG 20010904//EN"
 "http://www.w3.org/TR/2001/REC-SVG-20010904/DTD/svg10.dtd">
<svg version="1.0" xmlns="http://www.w3.org/2000/svg"
 width="326.000000pt" height="62.000000pt" viewBox="0 0 326.000000 62.000000"
 preserveAspectRatio="xMidYMid meet">

<g transform="translate(0.000000,62.000000) scale(0.100000,-0.100000)"
fill="#000000" stroke="none">
<path d="M1092 574 c-63 -31 -97 -77 -114 -152 -23 -105 19 -210 102 -252 44
-23 146 -27 199 -9 25 9 31 16 31 41 0 25 -3 29 -17 23 -135 -56 -253 16 -253
155 0 41 42 113 80 138 29 20 45 23 95 20 33 -2 68 -8 78 -12 14 -7 17 -3 17
23 0 39 -26 51 -109 51 -41 0 -71 -7 -109 -26z"/>
<path d="M1423 460 c-16 -6 -23 -18 -23 -36 0 -21 3 -25 18 -19 59 25 90 29
116 12 16 -11 26 -27 26 -41 0 -21 -6 -25 -52 -31 -106 -14 -138 -40 -138
-113 0 -55 31 -82 94 -82 36 0 52 5 71 25 l25 24 0 -24 c0 -22 5 -25 35 -25
l35 0 0 115 c0 124 -13 175 -48 194 -25 13 -128 13 -159 1z m137 -183 c0 -41
-22 -73 -56 -81 -34 -9 -74 17 -74 48 0 29 19 46 63 56 61 15 67 13 67 -23z"/>
<path d="M1720 310 l0 -160 35 0 35 0 0 109 c0 94 3 112 21 135 25 32 68 35
95 5 16 -17 20 -40 23 -135 l3 -114 29 0 29 0 0 96 c0 108 17 160 55 170 67
17 85 -15 85 -158 l0 -108 35 0 35 0 0 103 c-1 174 -21 217 -106 217 -34 0
-51 -6 -76 -29 l-32 -28 -24 28 c-33 40 -96 41 -141 3 l-31 -26 0 26 c0 23 -4
26 -35 26 l-35 0 0 -160z"/>
<path d="M2290 240 l0 -230 35 0 35 0 0 95 0 94 25 -24 c19 -20 34 -25 76 -25
44 0 55 4 84 33 69 69 65 221 -7 271 -37 26 -111 21 -147 -10 l-31 -26 0 26
c0 23 -4 26 -35 26 l-35 0 0 -230z m211 154 c32 -35 34 -119 3 -161 -28 -38
-86 -44 -120 -12 -20 19 -24 32 -24 86 0 55 4 68 25 88 33 34 83 34 116 -1z"/>
<path d="M2670 355 c0 -169 20 -205 113 -205 33 0 51 6 71 25 l26 24 0 -24 c0
-22 5 -25 35 -25 l35 0 0 160 0 160 -35 0 -35 0 0 -109 c0 -94 -3 -112 -21
-135 -15 -19 -30 -26 -53 -26 -57 0 -66 21 -66 153 l0 117 -35 0 -35 0 0 -115z"/>
<path d="M3073 451 c-36 -23 -50 -61 -37 -100 7 -19 28 -35 77 -59 62 -29 68
-35 65 -59 -4 -38 -53 -52 -108 -30 l-40 15 0 -28 c0 -34 14 -40 88 -40 96 0
149 51 126 119 -6 19 -28 35 -76 59 -57 28 -68 37 -68 58 0 34 41 50 93 36 37
-9 38 -9 35 17 -3 24 -6 26 -63 29 -46 2 -68 -2 -92 -17z"/>
</g>
</svg>
